<?xml version="1.0" encoding="UTF-8" standalone="no"?>
<svg
   width="20"
   height="16"
   enable-background="new"
   version="1.1"
   id="svg14"
   sodipodi:docname="battery-020-charging.svg"
   inkscape:version="1.2.2 (b0a8486541, 2022-12-01)"
   xmlns:inkscape="http://www.inkscape.org/namespaces/inkscape"
   xmlns:sodipodi="http://sodipodi.sourceforge.net/DTD/sodipodi-0.dtd"
   xmlns="http://www.w3.org/2000/svg"
   xmlns:svg="http://www.w3.org/2000/svg">
  <defs
     id="defs18" />
  <sodipodi:namedview
     id="namedview16"
     pagecolor="#ffffff"
     bordercolor="#000000"
     borderopacity="0.25"
     inkscape:showpageshadow="2"
     inkscape:pageopacity="0.0"
     inkscape:pagecheckerboard="0"
     inkscape:deskcolor="#d1d1d1"
     showgrid="false"
     inkscape:zoom="38.75829"
     inkscape:cx="0.87723168"
     inkscape:cy="6.7598442"
     inkscape:window-width="1908"
     inkscape:window-height="1039"
     inkscape:window-x="0"
     inkscape:window-y="0"
     inkscape:window-maximized="1"
     inkscape:current-layer="g8" />
  <g
     transform="translate(-1)"
     fill="#dedede"
     id="g12">
    <g
       transform="translate(1)"
       id="g8">
      <path
         d="m2 3c-1.108 0-2 0.892-2 2v6c0 1.108 0.892 2 2 2h13c1.108 0 2-0.892 2-2v-6c0-1.108-0.892-2-2-2zm0 1h13c0.554 0 1 0.446 1 1v6c0 0.554-0.446 1-1 1h-13c-0.554 0-1-0.446-1-1v-6c0-0.554 0.446-1 1-1z"
         enable-background="new"
         fill-rule="evenodd"
         style="paint-order:stroke fill markers"
         id="path2"
         inkscape:label="path2" />
      <path
         d="m18 6v4a2 2 0 0 0 2-2 2 2 0 0 0-2-2z"
         enable-background="new"
         fill-rule="evenodd"
         style="paint-order:stroke fill markers"
         id="path4" />
      <path
         d="m8.834 4-3.334 5h3l-0.75 3h0.41602l3.334-5h-3l0.75-3z"
         enable-background="new"
         id="path6"
         style="fill:#d3d3d3;fill-opacity:1" />
    </g>
    <path
       d="m3.4824 5c-0.26703 0-0.48242 0.24253-0.48242 0.54492v4.9102c0 0.3024 0.21539 0.54492 0.48242 0.54492h2.0352c0.26703 0 0.48242-0.24253 0.48242-0.54492v-0.5918c-0.46977-0.27296-0.67079-0.90961-0.33203-1.418l0.33203-0.49805v-2.4023c0-0.3024-0.21539-0.54492-0.48242-0.54492h-2.0352z"
       enable-background="new"
       fill-rule="evenodd"
       style="paint-order:stroke fill markers;fill:#1db954;fill-opacity:1"
       id="path10" />
  </g>
</svg>
