<?xml version="1.0" encoding="UTF-8" standalone="no"?>
<svg
   width="20"
   height="16"
   enable-background="new"
   version="1.1"
   id="svg11259"
   sodipodi:docname="battery-060-charging.svg"
   inkscape:version="1.2.2 (b0a8486541, 2022-12-01)"
   xmlns:inkscape="http://www.inkscape.org/namespaces/inkscape"
   xmlns:sodipodi="http://sodipodi.sourceforge.net/DTD/sodipodi-0.dtd"
   xmlns="http://www.w3.org/2000/svg"
   xmlns:svg="http://www.w3.org/2000/svg">
  <defs
     id="defs11263" />
  <sodipodi:namedview
     id="namedview11261"
     pagecolor="#ffffff"
     bordercolor="#000000"
     borderopacity="0.25"
     inkscape:showpageshadow="2"
     inkscape:pageopacity="0.0"
     inkscape:pagecheckerboard="0"
     inkscape:deskcolor="#d1d1d1"
     showgrid="false"
     inkscape:zoom="54.8125"
     inkscape:cx="1.4412771"
     inkscape:cy="8.027366"
     inkscape:window-width="1908"
     inkscape:window-height="1039"
     inkscape:window-x="0"
     inkscape:window-y="0"
     inkscape:window-maximized="1"
     inkscape:current-layer="g11257" />
  <g
     fill="#dedede"
     id="g11257">
    <path
       d="m8.834 4-3.334 5h3l-0.75 3h0.41602l3.334-5h-3l0.75-3z"
       enable-background="new"
       id="path11247"
       style="fill:#d3d3d3;fill-opacity:1" />
    <g
       fill-rule="evenodd"
       id="g11255">
      <path
         d="m2 3c-1.108 0-2 0.892-2 2v6c0 1.108 0.892 2 2 2h13c1.108 0 2-0.892 2-2v-6c0-1.108-0.892-2-2-2zm0 1h13c0.554 0 1 0.446 1 1v6c0 0.554-0.446 1-1 1h-13c-0.554 0-1-0.446-1-1v-6c0-0.554 0.446-1 1-1z"
         enable-background="new"
         style="paint-order:stroke fill markers"
         id="path11249" />
      <path
         d="m2.5508 5c-0.30514 0-0.55078 0.24564-0.55078 0.55078v4.8984c0 0.30514 0.24564 0.55078 0.55078 0.55078h4.418l0.25-1h-1.7188c-0.79859-1.712e-4 -1.2749-0.89013-0.83203-1.5547l2.2969-3.4453h-4.4141zm7.4805 0-0.25 1h1.7188c0.1877 4.03e-5 0.35566 0.052848 0.5 0.13672v-0.58594c0-0.30514-0.24564-0.55078-0.55078-0.55078h-1.418zm1.9688 3.0527-1.9648 2.9473h1.4141c0.30514 0 0.55078-0.24564 0.55078-0.55078v-2.3965z"
         enable-background="new"
         style="paint-order:stroke fill markers;fill:#1db954;fill-opacity:1"
         id="path11251" />
      <path
         d="m18 6v4a2 2 0 0 0 2-2 2 2 0 0 0-2-2z"
         enable-background="new"
         style="paint-order:stroke fill markers"
         id="path11253" />
    </g>
  </g>
</svg>
