<?xml version="1.0" encoding="UTF-8" standalone="no"?>
<svg
   width="20"
   height="16"
   enable-background="new"
   version="1.1"
   id="svg4215"
   sodipodi:docname="battery-000-charging.svg"
   inkscape:version="1.2.2 (b0a8486541, 2022-12-01)"
   xmlns:inkscape="http://www.inkscape.org/namespaces/inkscape"
   xmlns:sodipodi="http://sodipodi.sourceforge.net/DTD/sodipodi-0.dtd"
   xmlns="http://www.w3.org/2000/svg"
   xmlns:svg="http://www.w3.org/2000/svg">
  <defs
     id="defs4219" />
  <sodipodi:namedview
     id="namedview4217"
     pagecolor="#ffffff"
     bordercolor="#000000"
     borderopacity="0.25"
     inkscape:showpageshadow="2"
     inkscape:pageopacity="0.0"
     inkscape:pagecheckerboard="0"
     inkscape:deskcolor="#d1d1d1"
     showgrid="false"
     inkscape:zoom="38.75829"
     inkscape:cx="5.2117882"
     inkscape:cy="8.4498051"
     inkscape:window-width="1908"
     inkscape:window-height="1036"
     inkscape:window-x="0"
     inkscape:window-y="0"
     inkscape:window-maximized="1"
     inkscape:current-layer="g4213" />
  <g
     fill="#dedede"
     id="g4213">
    <path
       d="m2 3c-1.108 0-2 0.892-2 2v6c0 1.108 0.892 2 2 2h13c1.108 0 2-0.892 2-2v-6c0-1.108-0.892-2-2-2zm0 1h13c0.554 0 1 0.446 1 1v6c0 0.554-0.446 1-1 1h-13c-0.554 0-1-0.446-1-1v-6c0-0.554 0.446-1 1-1z"
       enable-background="new"
       fill-rule="evenodd"
       style="paint-order:stroke fill markers"
       id="path4207" />
    <path
       d="m18 6v4a2 2 0 0 0 2-2 2 2 0 0 0-2-2z"
       enable-background="new"
       fill-rule="evenodd"
       style="paint-order:stroke fill markers"
       id="path4209" />
    <path
       d="m8.834 4-3.334 5h3l-0.75 3h0.41602l3.334-5h-3l0.75-3z"
       enable-background="new"
       id="path4211"
       style="fill:#1db954;fill-opacity:1" />
  </g>
</svg>
