<?xml version="1.0" encoding="UTF-8" standalone="no"?>
<svg
   width="20"
   height="16"
   enable-background="new"
   version="1.1"
   id="svg20634"
   sodipodi:docname="battery-100-charging.svg"
   inkscape:version="1.2.2 (b0a8486541, 2022-12-01)"
   xmlns:inkscape="http://www.inkscape.org/namespaces/inkscape"
   xmlns:sodipodi="http://sodipodi.sourceforge.net/DTD/sodipodi-0.dtd"
   xmlns="http://www.w3.org/2000/svg"
   xmlns:svg="http://www.w3.org/2000/svg">
  <defs
     id="defs20638" />
  <sodipodi:namedview
     id="namedview20636"
     pagecolor="#ffffff"
     bordercolor="#000000"
     borderopacity="0.25"
     inkscape:showpageshadow="2"
     inkscape:pageopacity="0.0"
     inkscape:pagecheckerboard="0"
     inkscape:deskcolor="#d1d1d1"
     showgrid="false"
     inkscape:zoom="27.40625"
     inkscape:cx="-3.3204105"
     inkscape:cy="11.785633"
     inkscape:window-width="1908"
     inkscape:window-height="1039"
     inkscape:window-x="0"
     inkscape:window-y="0"
     inkscape:window-maximized="1"
     inkscape:current-layer="g20632" />
  <g
     fill="#dedede"
     id="g20632">
    <g
       fill-rule="evenodd"
       id="g20628">
      <path
         d="m2.5215 5c-0.28865 0-0.52148 0.24253-0.52148 0.54492v4.9102c0 0.30239 0.23284 0.54492 0.52148 0.54492h4.4473l0.25-1h-1.7188c-0.79859-1.712e-4 -1.2749-0.89013-0.83203-1.5547l2.2969-3.4453h-4.4434zm7.5098 0-0.25 1h1.7188c0.79859 1.713e-4 1.2749 0.89013 0.83203 1.5547l-2.2969 3.4453h4.4434c0.28865 0 0.52148-0.24253 0.52148-0.54492v-4.9102c0-0.30239-0.23284-0.54492-0.52148-0.54492h-4.4473z"
         style="paint-order:stroke fill markers;fill:#1db954;fill-opacity:1"
         id="path20622" />
      <path
         d="m2 3c-1.108 0-2 0.892-2 2v6c0 1.108 0.892 2 2 2h13c1.108 0 2-0.892 2-2v-6c0-1.108-0.892-2-2-2zm0 1h13c0.554 0 1 0.446 1 1v6c0 0.554-0.446 1-1 1h-13c-0.554 0-1-0.446-1-1v-6c0-0.554 0.446-1 1-1z"
         enable-background="new"
         style="paint-order:stroke fill markers"
         id="path20624" />
      <path
         d="m18 6v4a2 2 0 0 0 2-2 2 2 0 0 0-2-2z"
         enable-background="new"
         style="paint-order:stroke fill markers"
         id="path20626" />
    </g>
    <path
       d="m8.834 4-3.334 5h3l-0.75 3h0.41602l3.334-5h-3l0.75-3z"
       enable-background="new"
       id="path20630"
       style="fill:#d3d3d3;fill-opacity:1" />
  </g>
</svg>
